<svg xmlns="http://www.w3.org/2000/svg" width="1200" height="720" viewBox="0 0 1200 720" role="img" aria-label="Wireframe projetos desktop">
<rect x="0" y="0" width="1200" height="720" rx="0" fill="#071125" stroke="#071125"/>
<rect x="0" y="0" width="1200" height="78" rx="0" fill="#0c1c36" stroke="#1e3a5f"/>
<text x="48" y="47" font-family="Arial, sans-serif" font-size="22" fill="#fff" font-weight="700">MATHEUS LAGES.</text>
<text x="640" y="46" font-family="Arial, sans-serif" font-size="16" fill="#d1d5db" font-weight="400">Sobre    Áreas    Projetos    Experiências    Contato</text>
<text x="24" y="703" font-family="Arial, sans-serif" font-size="12" fill="#8faacc" font-weight="700">WIREFRAME · PROJETOS · DESKTOP · MÉDIA FIDELIDADE</text>
<text x="62" y="132" font-family="Arial, sans-serif" font-size="16" fill="#facc15" font-weight="700">PROJETOS</text>
<text x="62" y="189" font-family="Arial, sans-serif" font-size="30" fill="#fff" font-weight="700">Projetos publicados no GitHub</text>
<rect x="78" y="220" width="4" height="125" rx="62.5" fill="#60a5fa"/>
<rect x="110" y="212" width="1015" height="130" rx="13" fill="#102449" stroke="#294875"/>
<text x="140" y="254" font-family="Arial, sans-serif" font-size="22" fill="#fff" font-weight="700">Site-IENT</text>
<text x="140" y="287" font-family="Arial, sans-serif" font-size="17" fill="#dbeafe" font-weight="400">Projeto institucional</text>
<text x="140" y="319" font-family="Arial, sans-serif" font-size="15" fill="#60a5fa" font-weight="700">Ver no GitHub →</text>
<rect x="78" y="366" width="4" height="125" rx="62.5" fill="#60a5fa"/>
<rect x="110" y="358" width="1015" height="130" rx="13" fill="#102449" stroke="#294875"/>
<text x="140" y="400" font-family="Arial, sans-serif" font-size="22" fill="#fff" font-weight="700">Prova1-DIW</text>
<text x="140" y="433" font-family="Arial, sans-serif" font-size="17" fill="#dbeafe" font-weight="400">HTML5 e CSS3</text>
<text x="140" y="465" font-family="Arial, sans-serif" font-size="15" fill="#60a5fa" font-weight="700">Ver no GitHub →</text>
<rect x="78" y="512" width="4" height="125" rx="62.5" fill="#60a5fa"/>
<rect x="110" y="504" width="1015" height="130" rx="13" fill="#102449" stroke="#294875"/>
<text x="140" y="546" font-family="Arial, sans-serif" font-size="22" fill="#fff" font-weight="700">Portfólio Profissional</text>
<text x="140" y="579" font-family="Arial, sans-serif" font-size="17" fill="#dbeafe" font-weight="400">HTML · CSS · JS · Canvas</text>
<text x="140" y="611" font-family="Arial, sans-serif" font-size="15" fill="#60a5fa" font-weight="700">Ver no GitHub →</text>
</svg>